<?xml version="1.0" encoding="utf-8"?>
<!-- Generator: Adobe Illustrator 28.2.0, SVG Export Plug-In . SVG Version: 6.00 Build 0)  -->
<svg version="1.1" id="Layer_1" xmlns="http://www.w3.org/2000/svg" xmlns:xlink="http://www.w3.org/1999/xlink" x="0px" y="0px"
	 viewBox="0 0 122.9 121.8" style="enable-background:new 0 0 122.9 121.8;" xml:space="preserve">
<style type="text/css">
	.st0{fill:#FFFFFF;}
</style>
<path class="st0" d="M5.4,70.3c0.2,1.2,2.1,2.3,5,3c4.6,1,9.4,1.1,14,0.3l0,0c4.7-0.6,9.2-2.1,13.3-4.4c2.6-1.6,4.1-3.1,3.9-4.3
	s-2.1-2.3-5-3c-4.6-1-9.4-1.1-14-0.3l0,0c-4.7,0.6-9.2,2.1-13.3,4.3C6.7,67.6,5.2,69.1,5.4,70.3L5.4,70.3z M27.3,10.3L27.3,10.3
	l0.3-0.2c3-2,7.2-1.1,11.5,1.8c4.3,3.1,8,7.1,10.9,11.6c-0.1-5.3,0.8-10.6,2.7-15.6C54.8,3,57.8,0,61.4,0c3.6,0,6.7,3,8.7,7.8
	c1.9,4.8,2.8,10,2.8,15.2c2.8-4.4,6.4-8.2,10.5-11.3c4.3-3,8.5-3.8,11.5-1.9s4,6.1,3.1,11.2c-1.1,5.1-3.1,9.9-5.9,14.3
	c4.7-2.2,9.8-3.5,15-3.8c5.2-0.2,9.2,1.4,10.7,4.6l0.3,0.5v0.1c1.1,3.2-0.4,6.9-3.7,10.5c-3.6,3.7-7.9,6.7-12.7,8.8
	c5.1,0.7,10.1,2.4,14.7,4.9c4.4,2.6,6.9,5.9,6.6,9.4c0,0.1,0,0.2,0,0.3c-0.5,3.6-3.9,6.2-8.9,7.5c-5.1,1.2-10.3,1.4-15.4,0.6
	c3.9,3.4,7.2,7.4,9.7,12c2.3,4.7,2.6,8.9,0.2,11.7s-6.6,3.1-11.6,1.5c-4.9-1.8-9.4-4.4-13.3-7.8c1.5,5,2.1,10.2,1.7,15.3
	c-0.6,5.2-2.6,8.9-6.1,10l-0.4,0.1h-0.1c-3.3,0.7-6.9-1.3-10.1-5.1c-3.2-4.1-5.5-8.8-7-13.8c-1.4,5-3.8,9.7-6.9,13.8
	c-3.3,4.1-7,6.1-10.5,5.1s-5.6-4.7-6.2-9.9c-0.4-5.2,0.1-10.4,1.6-15.4c-3.9,3.4-8.4,6.1-13.3,7.9c-4.9,1.6-9.1,1.3-11.5-1.3l0,0
	l-0.1-0.1c-2.4-2.7-2.1-7,0.2-11.7c2.4-4.6,5.7-8.7,9.6-12.1c-5.1,0.8-10.4,0.6-15.4-0.5c-5.1-1.3-8.5-3.9-9-7.5v-0.2l0,0
	c-0.4-3.5,2.1-6.9,6.4-9.5c4.5-2.6,9.5-4.2,14.6-5c-4.7-2.1-9-5.1-12.7-8.7c-3.6-3.8-5-7.8-3.6-11.1l0.2-0.5v0
	c1.7-3,5.5-4.3,10.4-4.2c5.2,0.3,10.3,1.6,15,3.7c-2.9-4.3-4.9-9.2-6-14.2C23.6,16.3,24.4,12.3,27.3,10.3L27.3,10.3z M36.1,16.3
	c-2.5-1.7-4.5-2.4-5.5-1.7l0,0c-1,0.7-1.2,2.8-0.7,5.8c1,4.6,2.9,9,5.5,12.9l0,0v0.1c2.5,4,5.7,7.5,9.5,10.2
	c2.5,1.7,4.5,2.4,5.5,1.7l0,0c1-0.7,1.2-2.8,0.7-5.8c-1-4.6-2.9-9-5.6-12.9l0,0C43,22.6,39.8,19.1,36.1,16.3L36.1,16.3z M9.8,38.8
	L9.8,38.8c-0.5,1.1,0.5,3,2.6,5.2c3.2,3.2,7,5.7,11.1,7.6l0,0l0.5,0.2l0,0c4.3,2,8.9,3.2,13.6,3.5c3,0.1,5.1-0.4,5.6-1.5
	s-0.5-3-2.6-5.2c-3.3-3.3-7.2-6-11.5-7.8l0,0c-4.3-2-8.9-3.2-13.6-3.5C12.4,37.1,10.4,37.6,9.8,38.8L9.8,38.8z M19.7,93.5
	c-1.3,2.7-1.7,4.8-1,5.7l0,0c0.8,0.9,3,0.8,5.8-0.2C29,97.5,33,95,36.5,91.8l0.1-0.1c3.6-3,6.5-6.6,8.7-10.7
	c1.3-2.7,1.8-4.8,0.9-5.7s-3-0.8-5.8,0.2c-4.4,1.7-8.5,4.1-11.9,7.3l0,0C25,85.7,22,89.4,19.7,93.5L19.7,93.5z M43.3,111.1
	c0.3,3,1.1,5,2.3,5.3s2.9-0.9,4.8-3.3c2.8-3.7,4.8-7.9,6.1-12.4v-0.2c1.4-4.5,1.9-9.2,1.6-13.9c-0.3-3-1.1-5-2.3-5.3l0,0
	c-1.2-0.3-2.9,0.9-4.8,3.3c-2.8,3.8-4.9,8-6.1,12.6l0,0C43.5,101.6,42.9,106.3,43.3,111.1L43.3,111.1z M72.7,113.1
	c1.9,2.3,3.7,3.6,4.8,3.2l0,0c1.2-0.3,1.9-2.4,2.3-5.3c0.3-4.7-0.2-9.5-1.7-14v-0.1c-1.2-4.5-3.3-8.7-6.1-12.4
	c-1.9-2.3-3.7-3.6-4.8-3.2l0,0c-1.2,0.3-2,2.4-2.3,5.3c-0.3,4.7,0.2,9.4,1.7,13.9C67.8,105,69.9,109.3,72.7,113.1L72.7,113.1z
	 M98.5,98.9c2.9,0.9,5,1.1,5.8,0.1s0.4-3-1-5.7c-2.3-4.1-5.3-7.8-8.9-10.8c0,0-0.1,0,0,0c-3.5-3.1-7.6-5.6-12-7.2
	c-2.9-0.9-5-1-5.8-0.1s-0.4,3.1,1,5.7c2.3,4.1,5.3,7.8,8.9,10.8C90,94.9,94.1,97.3,98.5,98.9L98.5,98.9z M112.5,73
	c2.8-0.7,4.7-1.8,5-3v0c0.2-1.2-1.3-2.8-3.9-4.3c-4.1-2.3-8.6-3.7-13.3-4.3l0,0c-4.6-0.8-9.4-0.6-14,0.4c-2.9,0.8-4.8,1.8-5,3
	c-0.2,1.2,1.3,2.8,3.9,4.3c4.1,2.3,8.7,3.7,13.3,4.3C103.2,74.2,107.9,74,112.5,73L112.5,73z M110.3,43.7c2.1-2.2,3.1-4.1,2.6-5.2
	l0,0c-0.5-1.1-2.6-1.6-5.6-1.5c-4.7,0.3-9.3,1.6-13.5,3.6l-0.1,0.1c-4.3,1.9-8.1,4.5-11.4,7.8c-2,2.2-3.1,4.1-2.5,5.2
	s2.6,1.6,5.6,1.5c4.7-0.3,9.3-1.6,13.6-3.6C103.1,49.7,107,47,110.3,43.7L110.3,43.7z M92.7,20.1c0.5-3,0.3-5.1-0.7-5.8
	s-3.1,0.1-5.5,1.8c-3.8,2.8-7,6.3-9.5,10.3v0l0,0c-2.6,3.9-4.5,8.3-5.4,12.8c-0.5,3-0.3,5.1,0.7,5.8s3.1-0.1,5.6-1.8
	c3.8-2.8,7-6.4,9.4-10.4C89.8,29.1,91.7,24.7,92.7,20.1L92.7,20.1z M65.1,9.9c-1.1-2.8-2.5-4.5-3.7-4.5s-2.5,1.7-3.7,4.5
	c-1.7,4.4-2.4,9.1-2.3,13.8c-0.1,4.7,0.7,9.4,2.3,13.8c1.2,2.8,2.5,4.5,3.7,4.5s2.5-1.7,3.7-4.5c1.7-4.4,2.4-9.1,2.3-13.8
	C67.6,19,66.8,14.3,65.1,9.9z M71.4,52c-5.5-5.5-14.5-5.5-20,0s-5.5,14.5,0,20c5.5,5.5,14.5,5.5,20,0c2.6-2.6,4.1-6.2,4.1-10
	C75.5,58.2,74.1,54.6,71.4,52z"/>
</svg>
