<?xml version="1.0" encoding="utf-8"?><svg version="1.1" id="Layer_1" xmlns="http://www.w3.org/2000/svg" xmlns:xlink="http://www.w3.org/1999/xlink" x="0px" y="0px" viewBox="0 0 122.88 97.97" style="enable-background:new 0 0 122.88 97.97" xml:space="preserve"><g><path d="M26.24,0c35.34,0,35.34,56.21,0,56.21C-8.75,56.21-8.75,0,26.24,0L26.24,0z M43.98,96.06H26.78L78.63,1.91h17.19 L43.98,96.06L43.98,96.06z M26.24,14.87c-1.73,0-4.67,0.68-5.08,2.05c-0.41,1.36-0.61,5.09-0.61,11.19c0,6.19,0.21,9.94,0.61,11.26 c0.41,1.32,3.35,1.98,5.08,1.98c1.82,0,4.83-0.68,5.28-2.05c0.45-1.36,0.68-5.09,0.68-11.19c0-6.09-0.23-9.83-0.68-11.19 C31.07,15.56,28.06,14.87,26.24,14.87L26.24,14.87z M96.37,41.75c35.34,0,35.34,56.21,0,56.21C61.39,97.97,61.39,41.75,96.37,41.75 L96.37,41.75z M96.37,56.62c-1.73,0-4.67,0.66-5.08,1.98c-0.41,1.32-0.61,5.07-0.61,11.26c0,6.09,0.21,9.83,0.61,11.19 c0.41,1.36,3.35,2.05,5.08,2.05c1.82,0,4.83-0.68,5.28-2.05c0.97-2.91,0.97-19.47,0-22.38C101.2,57.31,98.19,56.62,96.37,56.62 L96.37,56.62z"/></g></svg>